<mxfile host="app.diagrams.net" agent="Mozilla/5.0 (Windows NT 10.0; Win64; x64) AppleWebKit/537.36 (KHTML, like Gecko) Chrome/136.0.0.0 Safari/537.36" version="27.0.6">
  <diagram id="moetrip-architecture" name="MoeTrip Architecture">
    <mxGraphModel dx="1554" dy="935" grid="1" gridSize="10" guides="1" tooltips="1" connect="1" arrows="1" fold="1" page="1" pageScale="1" pageWidth="850" pageHeight="1100" math="0" shadow="0">
      <root>
        <mxCell id="0" />
        <mxCell id="1" parent="0" />
        <mxCell id="client" value="客户端&lt;br&gt;浏览器 (Chrome, Firefox 等)&lt;br&gt;Vue 3, Vuetify 3, Pinia" style="rounded=1;whiteSpace=wrap;html=1;fillColor=#f5f5f5;strokeColor=#000000;fontSize=12;" parent="1" vertex="1">
          <mxGeometry x="40" y="200" width="150" height="80" as="geometry" />
        </mxCell>
        <mxCell id="nginx" value="Web 服务器&lt;br&gt;Nginx 1.18.0&lt;br&gt;HTTPS, 负载均衡" style="rounded=1;whiteSpace=wrap;html=1;fillColor=#d5e8d4;strokeColor=#000000;fontSize=12;" parent="1" vertex="1">
          <mxGeometry x="250" y="200" width="150" height="80" as="geometry" />
        </mxCell>
        <mxCell id="backend" value="后端&lt;br&gt;Node.js 18.16.0, Express 4.18.2&lt;br&gt;Sequelize, JWT, SHA1" style="rounded=1;whiteSpace=wrap;html=1;fillColor=#fff2cc;strokeColor=#000000;fontSize=12;" parent="1" vertex="1">
          <mxGeometry x="460" y="200" width="150" height="80" as="geometry" />
        </mxCell>
        <mxCell id="redis" value="缓存&lt;br&gt;Redis 7.0.12" style="rounded=1;whiteSpace=wrap;html=1;fillColor=#f8cecc;strokeColor=#000000;fontSize=12;" parent="1" vertex="1">
          <mxGeometry x="485" y="320" width="100" height="60" as="geometry" />
        </mxCell>
        <mxCell id="db" value="数据库&lt;br&gt;PostgreSQL 14.8 / MySQL 8.0.33&lt;br&gt;users, attractions, orders 等" style="rounded=1;whiteSpace=wrap;html=1;fillColor=#dae8fc;strokeColor=#000000;fontSize=12;" parent="1" vertex="1">
          <mxGeometry x="670" y="200" width="150" height="80" as="geometry" />
        </mxCell>
        <mxCell id="client-nginx" value="HTTPS" style="edgeStyle=orthogonalEdgeStyle;rounded=0;html=1;jettySize=auto;orthogonalLoop=1;fontSize=10;" parent="1" source="client" target="nginx" edge="1">
          <mxGeometry relative="1" as="geometry" />
        </mxCell>
        <mxCell id="nginx-backend" value="HTTP" style="edgeStyle=orthogonalEdgeStyle;rounded=0;html=1;jettySize=auto;orthogonalLoop=1;fontSize=10;" parent="1" source="nginx" target="backend" edge="1">
          <mxGeometry relative="1" as="geometry" />
        </mxCell>
        <mxCell id="backend-redis" value="读/写" style="edgeStyle=orthogonalEdgeStyle;rounded=0;html=1;jettySize=auto;orthogonalLoop=1;fontSize=10;" parent="1" source="backend" target="redis" edge="1">
          <mxGeometry relative="1" as="geometry" />
        </mxCell>
        <mxCell id="backend-db" value="SQL 查询" style="edgeStyle=orthogonalEdgeStyle;rounded=0;html=1;jettySize=auto;orthogonalLoop=1;fontSize=10;" parent="1" source="backend" target="db" edge="1">
          <mxGeometry relative="1" as="geometry" />
        </mxCell>
      </root>
    </mxGraphModel>
  </diagram>
</mxfile>
